<?xml version="1.0" encoding="UTF-8" standalone="no"?>
<!DOCTYPE svg PUBLIC "-//W3C//DTD SVG 1.1//EN" "http://www.w3.org/Graphics/SVG/1.1/DTD/svg11.dtd">
<svg width="100%" height="100%" viewBox="0 0 16 16" version="1.1" xmlns="http://www.w3.org/2000/svg" xmlns:xlink="http://www.w3.org/1999/xlink" xml:space="preserve" xmlns:serif="http://www.serif.com/" style="fill-rule:evenodd;clip-rule:evenodd;stroke-linejoin:round;stroke-miterlimit:2;">
    <path d="M7,5.75L7,10.25C7,11.216 6.216,12 5.25,12L1.75,12C0.784,12 0,11.216 0,10.25L0,5.75C0,4.784 0.784,4 1.75,4L5.25,4C6.216,4 7,4.784 7,5.75Z" style="fill:url(#_Linear1);"/>
    <path d="M16,5.75L16,10.25C16,11.216 15.216,12 14.25,12L10.75,12C9.784,12 9,11.216 9,10.25L9,5.75C9,4.784 9.784,4 10.75,4L14.25,4C15.216,4 16,4.784 16,5.75Z" style="fill:url(#_Linear2);"/>
    <path d="M2.428,10.552L2.428,10.362C2.428,10.173 2.443,10.012 2.472,9.881C2.501,9.745 2.564,9.592 2.661,9.422L4.375,6.396L4.375,6.279L1.663,6.279L1.663,5.448L5.338,5.448L5.338,6.556L3.529,9.786C3.466,9.898 3.422,9.998 3.398,10.085C3.374,10.173 3.361,10.28 3.361,10.406L3.361,10.552L2.428,10.552Z" style="fill:rgb(29,30,46);fill-rule:nonzero;"/>
    <path d="M12.471,10.654C12.092,10.654 11.761,10.591 11.479,10.465C11.202,10.338 10.986,10.156 10.83,9.918C10.68,9.68 10.604,9.395 10.604,9.065L11.552,9.065C11.552,9.269 11.623,9.446 11.764,9.597C11.909,9.748 12.145,9.823 12.471,9.823C12.801,9.823 13.054,9.738 13.229,9.568C13.404,9.393 13.492,9.157 13.492,8.86L13.492,8.335L13.36,8.335C13.278,8.433 13.151,8.525 12.981,8.612C12.816,8.7 12.568,8.744 12.238,8.744C11.946,8.744 11.674,8.681 11.421,8.554C11.168,8.428 10.964,8.245 10.808,8.007C10.653,7.764 10.575,7.473 10.575,7.132L10.575,7.045C10.575,6.705 10.655,6.408 10.816,6.155C10.976,5.902 11.202,5.706 11.494,5.565C11.785,5.419 12.126,5.346 12.515,5.346C12.903,5.346 13.241,5.419 13.528,5.565C13.815,5.71 14.036,5.912 14.192,6.17C14.347,6.427 14.425,6.724 14.425,7.059L14.425,8.802C14.425,9.215 14.34,9.56 14.17,9.837C14.005,10.11 13.774,10.314 13.477,10.45C13.185,10.586 12.85,10.654 12.471,10.654ZM12.5,8C12.704,8 12.879,7.964 13.025,7.891C13.176,7.818 13.29,7.716 13.368,7.584C13.45,7.453 13.492,7.298 13.492,7.118L13.492,7.059C13.492,6.787 13.402,6.573 13.222,6.418C13.047,6.257 12.806,6.177 12.5,6.177C12.194,6.177 11.951,6.257 11.771,6.418C11.596,6.573 11.508,6.787 11.508,7.059L11.508,7.118C11.508,7.298 11.547,7.453 11.625,7.584C11.708,7.716 11.824,7.818 11.975,7.891C12.126,7.964 12.301,8 12.5,8Z" style="fill:rgb(29,30,46);fill-rule:nonzero;"/>
    <defs>
        <linearGradient id="_Linear1" x1="0" y1="0" x2="1" y2="0" gradientUnits="userSpaceOnUse" gradientTransform="matrix(6.83135,6,-6.85714,7.80726,0,5)"><stop offset="0" style="stop-color:rgb(161,231,136);stop-opacity:1"/><stop offset="1" style="stop-color:rgb(101,176,74);stop-opacity:1"/></linearGradient>
        <linearGradient id="_Linear2" x1="0" y1="0" x2="1" y2="0" gradientUnits="userSpaceOnUse" gradientTransform="matrix(7,6,-6.85714,8,9,5)"><stop offset="0" style="stop-color:rgb(102,156,236);stop-opacity:1"/><stop offset="1" style="stop-color:rgb(46,124,241);stop-opacity:1"/></linearGradient>
    </defs>
</svg>
